<?xml version="1.0" encoding="UTF-8" standalone="no"?>
<svg
   xml:space="preserve"
   height="61.979"
   viewBox="0 0 52.242191 61.978519"
   width="52.242"
   version="1.1"
   id="svg3"
   sodipodi:docname="United_Parcel_Service_logo_2014.svg"
   inkscape:version="1.4.2 (f4327f4, 2025-05-13)"
   xmlns:inkscape="http://www.inkscape.org/namespaces/inkscape"
   xmlns:sodipodi="http://sodipodi.sourceforge.net/DTD/sodipodi-0.dtd"
   xmlns="http://www.w3.org/2000/svg"
   xmlns:svg="http://www.w3.org/2000/svg"><defs
     id="defs3" /><sodipodi:namedview
     id="namedview3"
     pagecolor="#ffffff"
     bordercolor="#000000"
     borderopacity="0.25"
     inkscape:showpageshadow="2"
     inkscape:pageopacity="0.0"
     inkscape:pagecheckerboard="0"
     inkscape:deskcolor="#d1d1d1"
     inkscape:zoom="16"
     inkscape:cx="11.8125"
     inkscape:cy="31.34375"
     inkscape:window-width="1920"
     inkscape:window-height="991"
     inkscape:window-x="-9"
     inkscape:window-y="-9"
     inkscape:window-maximized="1"
     inkscape:current-layer="g3" /><g
     transform="matrix(1.25 0 0 -1.25 -47.372 728.76)"
     id="g3"><g
       transform="translate(.36060 .36060)"
       id="g2"><path
         d="m 38.962,567.66 0.17739,-20.134 4.5235,-5.5879 13.571,-7.1844 16.675,8.1601 3.4592,8.2488 -0.35478,26.698 -12.595,0.35478 -13.127,-2.1287 -11.974,-6.9183 z"
         fill-rule="evenodd"
         fill="#301506"
         id="path1"
         sodipodi:nodetypes="ccccccccccc" /></g><path
       d="M 25.619,0 C 15.738,0 7.119,1.913 0,5.6855 v 30.16 c 0,6.3462 2.3845,11.653 6.8945,15.35 4.1875,3.435 17.138,9.0957 18.725,9.7832 1.505,-0.655 14.609,-6.4032 18.73,-9.7832 4.5075,-3.695 6.8926,-9.0034 6.8926,-15.35 V 5.6855 C 44.1221,1.9125 35.5031,-5e-4 25.6181,-5e-4 Z M 40.25,5.8398 c 2.9466,0.038525 5.8399,0.22055 8.6367,0.48047 v 29.525 c 0,5.6738 -2.0588,10.257 -6.0312,13.529 -3.5488,2.9225 -14.25,7.717 -17.236,9.0332 -3.026,-1.334 -13.754,-6.189 -17.239,-9.032 -3.9489,-3.216 -6.0275,-7.908 -6.0275,-13.529 v -17.252 c 11.348,-10.407 25.128,-12.921 37.896,-12.754 z m -13.963,13.748 c -2.4312,0 -4.3928,0.54344 -6.0078,1.5859 v 29.049 h 4.459 v -9.3848 c 0.445,0.13125 1.0909,0.25391 2.0059,0.25391 4.9462,0 7.7891,-4.4588 7.7891,-10.969 0,-6.4975 -2.9273,-10.535 -8.2461,-10.535 z m 15.236,0 c -2.9325,0.085 -5.9992,2.2093 -5.9805,5.8105 0.0075,2.3712 0.66484,4.1445 4.3398,6.3008 1.9612,1.1512 2.7514,1.9098 2.7852,3.3086 0.0375,1.555 -1.0369,2.4926 -2.6719,2.4863 -1.4225,-0.01125 -3.123,-0.8007 -4.2617,-1.8145 v 4.1035 c 1.3962,0.8325 3.1384,1.3828 4.8984,1.3828 4.405,0 6.372,-3.1116 6.457,-5.9629 0.08375,-2.5988 -0.63438,-4.5652 -4.3594,-6.7539 -1.6625,-0.975 -2.9754,-1.6158 -2.9316,-3.2383 0.04375,-1.5838 1.3586,-2.1402 2.6211,-2.1289 1.5575,0.01375 3.0641,0.87633 3.9941,1.8301 v -3.875 C 45.62975,20.43315 43.9704,19.5127 41.5229,19.5877 Z M 8.0211654,34.106654 v 8.223304 c 0,2.772283 1.6154469,4.175738 4.8036866,4.175738 1.972804,0 3.625122,-0.370647 4.855956,-1.049979 V 34.106714 h -3.21658 v 9.860099 c -0.350634,0.195136 -0.870729,0.319801 -1.525005,0.319801 -1.476639,0 -1.697285,-1.099219 -1.697285,-1.840854 V 34.106843 H 8.0210931 Z M 26.317,23.17767 c 2.5862,0 3.6582,2.0648 3.6582,7.0586 10e-7,4.8725 -1.226,7.2266 -3.791,7.2266 -0.60375,0 -1.1285,-0.14953 -1.4473,-0.26953 v -13.693 c 0.36125,-0.18 0.97508,-0.32227 1.5801,-0.32227 z"
       fill="#fab80a"
       id="path2"
       transform="matrix(0.8,0,0,-0.8,38.2576,582.5706)"
       inkscape:label="path2"
       sodipodi:nodetypes="ccscccscccccscccsccccccccsscccccccccscccccccccssccccssccccsscccc"
       style="fill:#fab80a;fill-opacity:1" /><g
       id="g4"><path
         d="m 44.658984,563.83109 v -4.70072 c 0,-1.58473 1.292358,-2.38699 3.84295,-2.38699 1.578243,0 2.900097,0.21187 3.884764,0.6002 v 6.48748 h -2.573264 v -5.63637 c -0.280507,-0.11154 -0.696583,-0.18281 -1.220004,-0.18281 -1.181311,0 -1.357828,0.62835 -1.357828,1.0523 v 4.7668 h -2.576675 z"
         style="fill:#fab80a;fill-opacity:1;stroke-width:0.8"
         id="path1-0"
         sodipodi:nodetypes="cssccccssccc" /><path
         d="m 52.35478,559.54248 0.03384,4.38489 c 0.01223,1.58468 -1.29235,2.38699 -3.84295,2.38699 -1.57824,0 -2.90009,-0.21187 -3.88476,-0.6002 v -1.97449 l 2.57326,-0.0227 v 1.14605 c 0.28051,0.11154 0.69659,0.18281 1.22001,0.18281 1.18131,0 1.35783,-0.62835 1.35783,-1.0523 v -0.29916 h 2.57667 z"
         style="fill:#fab80a;fill-opacity:1;stroke-width:0.8"
         id="path1-9"
         sodipodi:nodetypes="cssccccssccc" /></g></g></svg>
